<svg xmlns="http://www.w3.org/2000/svg" viewBox="0 0 320 320"><rect width="320" height="320" rx="24" fill="#102a28"/><circle cx="250" cy="51" r="21" fill="#315549"/><path d="M20 217Q160 172 300 217Q160 261 20 217" fill="#357358"/><path d="M162 217L298 217" stroke="#102a28" stroke-width="3"/><g fill="#b1df64" stroke="#163e35" stroke-width="5"><ellipse cx="111" cy="220" rx="48" ry="17"/><ellipse cx="211" cy="220" rx="48" ry="17"/><path d="M91 164Q61 198 104 215H217Q258 198 229 164Q229 123 161 121Q91 123 91 164Z"/><circle cx="107" cy="122" r="33"/><circle cx="214" cy="122" r="33"/></g><ellipse cx="161" cy="189" rx="42" ry="24" fill="#e2e9ab"/><circle cx="107" cy="122" r="21" fill="#f6ecd1"/><circle cx="214" cy="122" r="21" fill="#f6ecd1"/><rect x="104" y="112" width="10" height="23" rx="5" fill="#163e35"/><rect x="208" y="112" width="10" height="23" rx="5" fill="#163e35"/><path d="M127 155Q161 181 195 155" fill="none" stroke="#163e35" stroke-width="5" stroke-linecap="round"/><circle cx="117" cy="155" r="7" fill="#dfb3a9"/><circle cx="205" cy="155" r="7" fill="#dfb3a9"/><path d="M162 61Q180 83 162 87Q144 83 162 61" fill="#adc9c7"/><g fill="#83b56d"><rect x="57" y="278" width="16" height="8"/><rect x="77" y="278" width="16" height="8"/><rect x="157" y="278" width="16" height="8"/><rect x="197" y="278" width="16" height="8"/></g><g fill="#f5c451"><rect x="97" y="278" width="16" height="8"/><rect x="217" y="278" width="16" height="8"/><rect x="257" y="278" width="16" height="8"/></g><g fill="#7195a8"><rect x="37" y="278" width="16" height="8"/><rect x="117" y="278" width="16" height="8"/><rect x="137" y="278" width="16" height="8"/><rect x="177" y="278" width="16" height="8"/><rect x="237" y="278" width="16" height="8"/></g></svg>
