<svg xmlns="http://www.w3.org/2000/svg" viewBox="0 0 320 320"><rect width="320" height="320" rx="24" fill="#102a28"/><circle cx="250" cy="51" r="21" fill="#315549"/><path d="M20 217Q160 172 300 217Q160 261 20 217" fill="#357358"/><path d="M162 217L298 217" stroke="#102a28" stroke-width="3"/><g fill="#b1df64" stroke="#163e35" stroke-width="5"><ellipse cx="111" cy="220" rx="48" ry="17"/><ellipse cx="211" cy="220" rx="48" ry="17"/><path d="M91 164Q61 198 104 215H217Q258 198 229 164Q229 123 161 121Q91 123 91 164Z"/><circle cx="107" cy="122" r="33"/><circle cx="214" cy="122" r="33"/></g><ellipse cx="161" cy="189" rx="42" ry="24" fill="#e2e9ab"/><circle cx="107" cy="122" r="21" fill="#f6ecd1"/><circle cx="214" cy="122" r="21" fill="#f6ecd1"/><rect x="104" y="112" width="10" height="23" rx="5" fill="#163e35"/><rect x="208" y="112" width="10" height="23" rx="5" fill="#163e35"/><path d="M127 155Q161 181 195 155" fill="none" stroke="#163e35" stroke-width="5" stroke-linecap="round"/><circle cx="117" cy="155" r="7" fill="#dfb3a9"/><circle cx="205" cy="155" r="7" fill="#dfb3a9"/><path d="M162 61Q180 83 162 87Q144 83 162 61" fill="#adc9c7"/><rect x="20" y="270" width="16" height="8" fill="#5a9563"/><rect x="38" y="270" width="16" height="8" fill="#f5c451"/><rect x="56" y="270" width="16" height="8" fill="#744f71"/><rect x="74" y="270" width="16" height="8" fill="#7195a8"/><rect x="92" y="270" width="16" height="8" fill="#744f71"/><rect x="110" y="270" width="16" height="8" fill="#744f71"/><rect x="128" y="270" width="16" height="8" fill="#744f71"/><rect x="146" y="270" width="16" height="8" fill="#f6ecd1"/><rect x="164" y="270" width="16" height="8" fill="#357358"/><rect x="182" y="270" width="16" height="8" fill="#7195a8"/><rect x="200" y="270" width="16" height="8" fill="#5a9563"/><rect x="218" y="270" width="16" height="8" fill="#357358"/><rect x="236" y="270" width="16" height="8" fill="#dfef9c"/><rect x="254" y="270" width="16" height="8" fill="#325a72"/><rect x="272" y="270" width="16" height="8" fill="#193d38"/><rect x="290" y="270" width="16" height="8" fill="#b1df64"/><rect x="20" y="280" width="16" height="8" fill="#7195a8"/><rect x="38" y="280" width="16" height="8" fill="#357358"/><rect x="56" y="280" width="16" height="8" fill="#ab7e97"/><rect x="74" y="280" width="16" height="8" fill="#325a72"/><rect x="92" y="280" width="16" height="8" fill="#ab7e97"/><rect x="110" y="280" width="16" height="8" fill="#23554b"/><rect x="128" y="280" width="16" height="8" fill="#23554b"/><rect x="146" y="280" width="16" height="8" fill="#23554b"/><rect x="164" y="280" width="16" height="8" fill="#83b56d"/><rect x="182" y="280" width="16" height="8" fill="#adc9c7"/><rect x="200" y="280" width="16" height="8" fill="#193d38"/><rect x="218" y="280" width="16" height="8" fill="#193d38"/><rect x="236" y="280" width="16" height="8" fill="#f5c451"/><rect x="254" y="280" width="16" height="8" fill="#744f71"/><rect x="272" y="280" width="16" height="8" fill="#dfb3a9"/><rect x="290" y="280" width="16" height="8" fill="#744f71"/><rect x="20" y="290" width="16" height="8" fill="#adc9c7"/><rect x="38" y="290" width="16" height="8" fill="#744f71"/><rect x="56" y="290" width="16" height="8" fill="#b1df64"/><rect x="74" y="290" width="16" height="8" fill="#f6ecd1"/><rect x="92" y="290" width="16" height="8" fill="#193d38"/><rect x="110" y="290" width="16" height="8" fill="#7195a8"/><rect x="128" y="290" width="16" height="8" fill="#357358"/><rect x="146" y="290" width="16" height="8" fill="#83b56d"/><rect x="164" y="290" width="16" height="8" fill="#357358"/><rect x="182" y="290" width="16" height="8" fill="#23554b"/><rect x="200" y="290" width="16" height="8" fill="#83b56d"/><rect x="218" y="290" width="16" height="8" fill="#83b56d"/><rect x="236" y="290" width="16" height="8" fill="#5a9563"/><rect x="254" y="290" width="16" height="8" fill="#357358"/><rect x="272" y="290" width="16" height="8" fill="#dfb3a9"/><rect x="290" y="290" width="16" height="8" fill="#5a9563"/><rect x="20" y="300" width="16" height="8" fill="#325a72"/><rect x="38" y="300" width="16" height="8" fill="#83b56d"/><rect x="56" y="300" width="16" height="8" fill="#83b56d"/><rect x="74" y="300" width="16" height="8" fill="#b1df64"/><rect x="92" y="300" width="16" height="8" fill="#7195a8"/><rect x="110" y="300" width="16" height="8" fill="#744f71"/><rect x="128" y="300" width="16" height="8" fill="#193d38"/><rect x="146" y="300" width="16" height="8" fill="#ab7e97"/><rect x="164" y="300" width="16" height="8" fill="#f5c451"/><rect x="182" y="300" width="16" height="8" fill="#b1df64"/><rect x="200" y="300" width="16" height="8" fill="#f6ecd1"/><rect x="218" y="300" width="16" height="8" fill="#adc9c7"/><rect x="236" y="300" width="16" height="8" fill="#744f71"/><rect x="254" y="300" width="16" height="8" fill="#adc9c7"/><rect x="272" y="300" width="16" height="8" fill="#b1df64"/><rect x="290" y="300" width="16" height="8" fill="#f5c451"/></svg>